<svg fill="none" height="19" viewBox="0 0 21 19" width="21" xmlns="http://www.w3.org/2000/svg"><path d="m19.3764 9.78586c2.1648-2.24248 2.1648-5.88373 0-8.104-2.1649-2.242479-5.68-2.242479-7.8449 0l-1.0503 1.11014-1.05022-1.08794c-2.16484-2.264679-5.68002-2.264679-7.82343-.0222-1.050265 1.08793-1.60755 2.53111-1.60755 4.0631s.578719 2.97517 1.60755 4.0631l8.87365 9.19194zm-18.00462-4.0409c0-1.15454.42868-2.22027 1.22174-3.01957.81449-.84371 1.86476-1.26556 2.91503-1.26556s2.10053.42185 2.91503 1.26556l2.05762 2.10926 2.0577-2.13147c1.6076-1.6652 4.244-1.6652 5.8301 0 .7716.7993 1.2217 1.86504 1.2217 3.01958s-.4287 2.22027-1.2217 3.01957l-7.8878 8.19277-7.88768-8.17057c-.77163-.8215-1.22174-1.88723-1.22174-3.01957z" fill="#000"/></svg>